<svg xmlns="http://www.w3.org/2000/svg" width="640" height="360" viewBox="0 0 640 360" role="img" aria-label="Minesweeper preview">
  <defs>
    <linearGradient id="bg" x1="0%" y1="0%" x2="100%" y2="100%">
      <stop offset="0%" style="stop-color:#0f1419"/>
      <stop offset="100%" style="stop-color:#1a2332"/>
    </linearGradient>
    <linearGradient id="tile" x1="0%" y1="0%" x2="0%" y2="100%">
      <stop offset="0%" style="stop-color:#4a5d78"/>
      <stop offset="100%" style="stop-color:#2a3545"/>
    </linearGradient>
  </defs>
  <rect width="640" height="360" fill="url(#bg)"/>
  <text x="320" y="48" text-anchor="middle" fill="#e6edf3" font-family="system-ui,sans-serif" font-size="28" font-weight="700">MINESWEEPER</text>
  <text x="320" y="74" text-anchor="middle" fill="#8b9cb3" font-family="system-ui,sans-serif" font-size="14">React · Timer · Chord · First click safe</text>
  <rect x="200" y="100" width="240" height="200" rx="10" fill="#141c28" stroke="#2d3a4d" stroke-width="2"/>
  <g transform="translate(218,118)" font-family="system-ui,sans-serif" font-weight="700" font-size="14">
    <g transform="translate(0,0)">
      <rect width="28" height="28" rx="4" fill="#2a3444" stroke="#1f2835"/>
      <text x="14" y="19" text-anchor="middle" fill="#5eb3f6">1</text>
    </g>
    <g transform="translate(31,0)">
      <rect width="28" height="28" rx="4" fill="url(#tile)" stroke="#5a6d86" stroke-width="2"/>
    </g>
    <g transform="translate(62,0)">
      <rect width="28" height="28" rx="4" fill="#2a3444" stroke="#1f2835"/>
      <text x="14" y="19" text-anchor="middle" fill="#6bcf7f">2</text>
    </g>
    <g transform="translate(93,0)"><rect width="28" height="28" rx="4" fill="url(#tile)" stroke="#5a6d86" stroke-width="2"/></g>
    <g transform="translate(124,0)"><rect width="28" height="28" rx="4" fill="url(#tile)" stroke="#5a6d86" stroke-width="2"/></g>
    <g transform="translate(155,0)"><rect width="28" height="28" rx="4" fill="url(#tile)" stroke="#5a6d86" stroke-width="2"/></g>
    <g transform="translate(186,0)"><rect width="28" height="28" rx="4" fill="url(#tile)" stroke="#5a6d86" stroke-width="2"/></g>
    <g transform="translate(0,31)"><rect width="28" height="28" rx="4" fill="url(#tile)" stroke="#5a6d86" stroke-width="2"/></g>
    <g transform="translate(31,31)"><rect width="28" height="28" rx="4" fill="#2a3444" stroke="#1f2835"/></g>
    <g transform="translate(62,31)"><rect width="28" height="28" rx="4" fill="url(#tile)" stroke="#5a6d86" stroke-width="2"/></g>
    <g transform="translate(93,31)">
      <rect width="28" height="28" rx="4" fill="#2a3444" stroke="#1f2835"/>
      <text x="14" y="19" text-anchor="middle" fill="#ff6b6b">3</text>
    </g>
    <g transform="translate(124,31)"><rect width="28" height="28" rx="4" fill="url(#tile)" stroke="#5a6d86" stroke-width="2"/></g>
    <g transform="translate(155,31)">
      <rect width="28" height="28" rx="4" fill="url(#tile)" stroke="#8b4040" stroke-width="2"/>
      <text x="14" y="19" text-anchor="middle" font-size="12">&#x1F6A9;</text>
    </g>
    <g transform="translate(186,31)"><rect width="28" height="28" rx="4" fill="url(#tile)" stroke="#5a6d86" stroke-width="2"/></g>
    <g transform="translate(0,62)"><rect width="28" height="28" rx="4" fill="url(#tile)" stroke="#5a6d86" stroke-width="2"/></g>
    <g transform="translate(31,62)"><rect width="28" height="28" rx="4" fill="url(#tile)" stroke="#5a6d86" stroke-width="2"/></g>
    <g transform="translate(62,62)"><rect width="28" height="28" rx="4" fill="url(#tile)" stroke="#5a6d86" stroke-width="2"/></g>
    <g transform="translate(93,62)"><rect width="28" height="28" rx="4" fill="url(#tile)" stroke="#5a6d86" stroke-width="2"/></g>
    <g transform="translate(124,62)"><rect width="28" height="28" rx="4" fill="url(#tile)" stroke="#5a6d86" stroke-width="2"/></g>
    <g transform="translate(155,62)"><rect width="28" height="28" rx="4" fill="url(#tile)" stroke="#5a6d86" stroke-width="2"/></g>
    <g transform="translate(186,62)"><rect width="28" height="28" rx="4" fill="url(#tile)" stroke="#5a6d86" stroke-width="2"/></g>
    <g transform="translate(0,93)"><rect width="28" height="28" rx="4" fill="url(#tile)" stroke="#5a6d86" stroke-width="2"/></g>
    <g transform="translate(31,93)">
      <rect width="28" height="28" rx="4" fill="#3d1a1a" stroke="#c44"/>
      <text x="14" y="19" text-anchor="middle" font-size="11">&#x1F4A3;</text>
    </g>
    <g transform="translate(62,93)"><rect width="28" height="28" rx="4" fill="url(#tile)" stroke="#5a6d86" stroke-width="2"/></g>
    <g transform="translate(93,93)"><rect width="28" height="28" rx="4" fill="url(#tile)" stroke="#5a6d86" stroke-width="2"/></g>
    <g transform="translate(124,93)"><rect width="28" height="28" rx="4" fill="url(#tile)" stroke="#5a6d86" stroke-width="2"/></g>
    <g transform="translate(155,93)"><rect width="28" height="28" rx="4" fill="url(#tile)" stroke="#5a6d86" stroke-width="2"/></g>
    <g transform="translate(186,93)"><rect width="28" height="28" rx="4" fill="url(#tile)" stroke="#5a6d86" stroke-width="2"/></g>
    <g transform="translate(0,124)"><rect width="28" height="28" rx="4" fill="url(#tile)" stroke="#5a6d86" stroke-width="2"/></g>
    <g transform="translate(31,124)"><rect width="28" height="28" rx="4" fill="url(#tile)" stroke="#5a6d86" stroke-width="2"/></g>
    <g transform="translate(62,124)"><rect width="28" height="28" rx="4" fill="url(#tile)" stroke="#5a6d86" stroke-width="2"/></g>
    <g transform="translate(93,124)"><rect width="28" height="28" rx="4" fill="url(#tile)" stroke="#5a6d86" stroke-width="2"/></g>
    <g transform="translate(124,124)"><rect width="28" height="28" rx="4" fill="url(#tile)" stroke="#5a6d86" stroke-width="2"/></g>
    <g transform="translate(155,124)"><rect width="28" height="28" rx="4" fill="url(#tile)" stroke="#5a6d86" stroke-width="2"/></g>
    <g transform="translate(186,124)"><rect width="28" height="28" rx="4" fill="url(#tile)" stroke="#5a6d86" stroke-width="2"/></g>
  </g>
  <rect x="210" y="312" width="220" height="8" rx="4" fill="#5eb3f6" opacity="0.35"/>
  <text x="320" y="342" text-anchor="middle" fill="#5eb3f6" font-family="system-ui,sans-serif" font-size="12" opacity="0.9">Play on GitHub Pages</text>
</svg>
